<svg xmlns="http://www.w3.org/2000/svg" viewBox="0 0 612 612"><defs><style>.a{fill:#66625d;}.b{fill:#f0991f;}</style></defs><title>Logosvg</title><path class="a" d="M584.3,214.2C539.1,58.9,376.6-30.3,221.4,14.9S-23,222.6,22.2,377.8,229.8,622.3,385.1,577.1L348.2,450.4A161.4,161.4,0,1,1,454.9,349.1l124.6,43.6h0A291.4,291.4,0,0,0,584.3,214.2Z"/><path class="b" d="M527.4,484.2l76.8,81-24.1,22.9L556,610.9,479.2,530l.8-.6a292.1,292.1,0,0,1-95,47.7L303.2,296l276.3,96.7h0a294.4,294.4,0,0,1-52.1,91.5Z"/></svg>